Coordinates
version=1
nRows=15
nColumns=34
inDegrees=no

Units are S.I. units (second, meters, Newtons, ...)
If the header above contains a line with 'inDegrees', this indicates whether rotational values are in degrees (yes) or radians (no).

endheader
time	pelvis_tilt	pelvis_list	pelvis_rotation	pelvis_tx	pelvis_ty	pelvis_tz	hip_flexion_r	hip_adduction_r	hip_rotation_r	knee_angle_r	ankle_angle_r	subtalar_angle_r	mtp_angle_r	hip_flexion_l	hip_adduction_l	hip_rotation_l	knee_angle_l	ankle_angle_l	subtalar_angle_l	mtp_angle_l	lumbar_extension	lumbar_bending	lumbar_rotation	arm_flex_r	arm_add_r	arm_rot_r	elbow_flex_r	pro_sup_r	arm_flex_l	arm_add_l	arm_rot_l	elbow_flex_l	pro_sup_l
0	-0.173635	-0.0617265	-0.0741328	-0.158653	0.949721	-0.712837	0.210962	-0.139602	-0.101539	0.10726	0.129933	0.146254	-0.095611	0.215669	-0.3274	-0.368506	0.218141	0.191301	0.278201	-0.0955812	0.0658717	0.0324837	0.0475451	-0.176346	-0.174062	-0.318611	2.26498	1.72181	-0.135775	-0.11337	-0.348741	2.28652	1.68331
0.01	-0.17324	-0.0619521	-0.0741474	-0.158608	0.949771	-0.712855	0.210636	-0.139486	-0.101419	0.107227	0.129814	0.14641	-0.095611	0.215378	-0.327846	-0.369041	0.218463	0.191643	0.278831	-0.0955813	0.0654593	0.0325608	0.0475607	-0.176509	-0.17399	-0.318518	2.26517	1.71958	-0.135847	-0.113574	-0.348294	2.287	1.68029
0.02	-0.17281	-0.0621825	-0.0741862	-0.158575	0.94982	-0.712872	0.210354	-0.139364	-0.101289	0.107302	0.12973	0.146556	-0.095611	0.215074	-0.32831	-0.36959	0.218813	0.191945	0.279424	-0.0955814	0.0649785	0.0326563	0.0476271	-0.17664	-0.173912	-0.318496	2.26541	1.71723	-0.135844	-0.113737	-0.347911	2.28745	1.67728
0.03	-0.172348	-0.0624163	-0.0742493	-0.158554	0.949869	-0.712888	0.210118	-0.139239	-0.101148	0.107485	0.12968	0.146691	-0.0956111	0.214761	-0.32879	-0.370148	0.219193	0.192207	0.279976	-0.0955815	0.0644318	0.0327687	0.0477426	-0.176739	-0.17383	-0.318543	2.26572	1.7148	-0.135769	-0.113863	-0.347594	2.28789	1.67431
0.04	-0.171862	-0.0626506	-0.0743359	-0.158546	0.949917	-0.712903	0.209942	-0.139112	-0.100995	0.107781	0.129663	0.146811	-0.0956111	0.214451	-0.329282	-0.370702	0.219607	0.192427	0.280472	-0.0955815	0.0638284	0.0328947	0.0479008	-0.176802	-0.173742	-0.318653	2.26608	1.71235	-0.135627	-0.113955	-0.347346	2.28829	1.67145
0.05	-0.171372	-0.0628817	-0.0744436	-0.158551	0.949963	-0.712916	0.20985	-0.138988	-0.100827	0.108195	0.129678	0.146906	-0.0956111	0.214174	-0.32978	-0.371224	0.220064	0.1926	0.280883	-0.0955816	0.0631905	0.0330294	0.0480868	-0.176821	-0.173649	-0.318817	2.26647	1.71005	-0.135431	-0.114021	-0.347174	2.28866	1.66881
0.06	-0.170913	-0.063107	-0.0745667	-0.158572	0.950003	-0.712928	0.209887	-0.138868	-0.100644	0.108739	0.129716	0.146957	-0.0956111	0.213986	-0.330282	-0.371673	0.22058	0.192718	0.281167	-0.0955817	0.0625567	0.0331686	0.0482754	-0.176787	-0.173548	-0.31902	2.26685	1.70815	-0.135199	-0.114072	-0.347089	2.28898	1.6666
0.07	-0.170534	-0.0633256	-0.0746946	-0.158611	0.950035	-0.712939	0.210115	-0.138752	-0.100448	0.109423	0.129768	0.146948	-0.0956111	0.213965	-0.330786	-0.371989	0.221174	0.192769	0.281266	-0.0955818	0.0619812	0.0333089	0.0484313	-0.176683	-0.173438	-0.319242	2.26717	1.70697	-0.13495	-0.114121	-0.347104	2.28923	1.66503
0.08	-0.170295	-0.0635369	-0.0748133	-0.158671	0.950054	-0.712947	0.210605	-0.138639	-0.100245	0.110259	0.12982	0.146866	-0.0956111	0.214204	-0.33129	-0.372106	0.221866	0.192739	0.281118	-0.0955818	0.0615274	0.0334473	0.0485128	-0.176497	-0.173316	-0.319459	2.26739	1.7068	-0.134705	-0.114179	-0.347233	2.2894	1.66435
0.09	-0.170251	-0.0637409	-0.0749074	-0.158753	0.950055	-0.712953	0.211419	-0.138528	-0.100037	0.111248	0.129857	0.146699	-0.0956111	0.21479	-0.331793	-0.371964	0.222675	0.192616	0.280674	-0.0955819	0.061256	0.0335808	0.048478	-0.176214	-0.173182	-0.319642	2.26745	1.70789	-0.134482	-0.114263	-0.347483	2.28947	1.66469
0.1	-0.170442	-0.0639385	-0.074966	-0.158861	0.950037	-0.712958	0.212594	-0.138416	-0.0998214	0.112379	0.129864	0.146437	-0.0956112	0.21578	-0.332295	-0.371532	0.223606	0.192395	0.279916	-0.095582	0.0612115	0.0337072	0.0482942	-0.175825	-0.173034	-0.319758	2.26733	1.71023	-0.134295	-0.114387	-0.34785	2.28946	1.66602
0.11	-0.17088	-0.0641306	-0.0749873	-0.158994	0.949997	-0.712959	0.214128	-0.138298	-0.0995808	0.113627	0.129828	0.14607	-0.0956112	0.217188	-0.332801	-0.370822	0.224656	0.19208	0.278869	-0.0955821	0.0614075	0.0338252	0.0479461	-0.175326	-0.172874	-0.319768	2.26704	1.71359	-0.134151	-0.114572	-0.348312	2.28942	1.6681
0.12	-0.171539	-0.064317	-0.0749833	-0.15915	0.949938	-0.712955	0.215978	-0.138167	-0.0992924	0.114956	0.12974	0.145591	-0.0956112	0.218963	-0.333317	-0.369894	0.225805	0.19168	0.277609	-0.0955821	0.0618193	0.0339335	0.0474423	-0.174714	-0.172702	-0.319631	2.26661	1.71747	-0.134044	-0.114839	-0.348828	2.28938	1.67052
0.13	-0.172369	-0.064495	-0.0749773	-0.159329	0.949865	-0.712943	0.21807	-0.138019	-0.0989333	0.116328	0.129603	0.145004	-0.0956112	0.221013	-0.333847	-0.368845	0.227019	0.191211	0.276235	-0.0955822	0.0623917	0.0340304	0.0468149	-0.173991	-0.172521	-0.31932	2.26608	1.72135	-0.13396	-0.115211	-0.349351	2.28939	1.67285
0.14	-0.173303	-0.064658	-0.0749994	-0.159528	0.949782	-0.712922	0.220319	-0.137856	-0.0984889	0.117712	0.129427	0.14433	-0.0956112	0.22322	-0.334391	-0.367783	0.228262	0.190688	0.27485	-0.0955823	0.0630515	0.034113	0.0461151	-0.173163	-0.172333	-0.31883	2.2655	1.7248	-0.133872	-0.115706	-0.34983	2.28949	1.67482
